# xmcd CD database file
#
# Track frame offsets:
#	150
#	14646
#	26675
#	36697
#	50559
#	64220
#	78129
#	95187
#	108619
#
# Disc length: 1663 seconds
#
# Revision: 0
# Processed by: cddbd v1.5.2PL0 Copyright (c) Steve Scherf et al.
# Submitted via: CDex 1.70beta2
#
DISCID=80067d09
DTITLE=Clint Black - Put Yourself In My Shoes
DYEAR=1900
DGENRE=Country
TTITLE0=Put Yourself In My Shoes
TTITLE1=The Gulf Of Mexico
TTITLE2=One More Payment
TTITLE3=Where Are You Now
TTITLE4=The Old Man
TTITLE5=This Nightlife
TTITLE6=Loving Blind
TTITLE7=A Heart Like Mine
TTITLE8=The Goodnight Loving
EXTD=
EXTT0=
EXTT1=
EXTT2=
EXTT3=
EXTT4=
EXTT5=
EXTT6=
EXTT7=
EXTT8=
PLAYORDER=
